<?xml version="1.0" encoding="UTF-8" standalone="no"?>
<svg
   viewBox="0 0 256 256"
   width="256"
   height="256"
   version="1.1"
   id="svg6"
   xmlns="http://www.w3.org/2000/svg"
   xmlns:svg="http://www.w3.org/2000/svg">
  <defs
     id="defs10" />
  <rect
     x="8"
     y="8"
     width="240"
     height="240"
     rx="52"
     fill="#ef5f4c"
     id="rect2" />
  <g
     aria-label="{?}"
     id="text4"
     style="font-weight:bold;font-size:132px;font-family:'DejaVu Sans Mono';dominant-baseline:central;text-anchor:middle;fill:#fdfbf7">
    <path
       d="m 76.663086,173.50586 v 12.31055 h -9.667969 q -16.048828,0 -21.527344,-4.76954 -5.414062,-4.76953 -5.414062,-19.01367 v -13.85742 q 0,-9.73242 -3.480469,-13.40625 -3.416015,-3.73828 -12.439453,-3.73828 H 20.137695 V 118.7207 h 3.996094 q 9.023438,0 12.439453,-3.67382 3.480469,-3.67383 3.480469,-13.47071 V 87.71875 q 0,-14.244141 5.414062,-18.949219 Q 50.946289,64 66.995117,64 h 9.667969 v 12.246094 h -7.927734 q -6.703125,0 -8.958985,2.707031 -2.255859,2.707031 -2.255859,11.923828 v 13.470707 q 0,10.63476 -3.158203,14.95312 -3.158203,4.31836 -11.279297,5.54297 8.121094,1.35352 11.279297,5.73633 3.158203,4.38281 3.158203,14.95312 v 13.21289 q 0,9.28125 2.255859,11.98828 2.25586,2.77149 8.958985,2.77149 z"
       id="path12" />
    <path
       d="m 116.62402,146.04883 h 17.20899 v 18.24023 h -17.20899 z m 17.20899,-7.60547 h -17.20899 v -9.92578 q 0,-6.38086 1.99805,-10.89258 1.99805,-4.51172 7.1543,-9.53906 l 5.80078,-5.73633 q 4.06055,-3.931641 5.47851,-6.509766 1.48243,-2.578125 1.48243,-5.34961 0,-4.318359 -2.96485,-6.509765 -2.96484,-2.191407 -8.89453,-2.191407 -5.41406,0 -11.34375,2.320313 -5.86523,2.255859 -12.05273,6.767578 V 73.603516 q 6.3164,-3.609375 12.76172,-5.414063 6.50976,-1.869141 13.01953,-1.869141 13.01953,0 20.43164,6.058594 7.41211,6.058594 7.41211,16.69336 0,4.898437 -2.19141,9.152343 -2.19141,4.189451 -8.25,10.119141 l -5.67187,5.54297 q -4.38282,4.25391 -5.60743,6.96094 -1.22461,2.70703 -1.22461,6.63867 0,0.58008 -0.0644,1.35351 0,0.77344 -0.0644,1.67578 z"
       id="path14" />
    <path
       d="m 179.33691,173.50586 h 7.79883 q 6.70313,0 9.02344,-2.77149 2.32031,-2.77148 2.32031,-11.98828 V 145.5332 q 0,-10.57031 3.15821,-14.95312 3.1582,-4.38281 11.21484,-5.73633 -8.12109,-1.22461 -11.2793,-5.54297 -3.09375,-4.31836 -3.09375,-14.95312 V 90.876953 q 0,-9.087891 -2.32031,-11.859375 -2.25586,-2.771484 -9.02344,-2.771484 h -7.79883 V 64 h 9.66797 q 15.98438,0 21.33399,4.769531 5.41406,4.705078 5.41406,18.949219 v 13.85742 q 0,9.73242 3.48047,13.47071 3.54492,3.67382 12.63281,3.67382 h 3.99609 v 12.31055 h -3.99609 q -9.08789,0 -12.63281,3.73828 -3.48047,3.73828 -3.48047,13.40625 v 13.85742 q 0,14.24414 -5.41406,19.01367 -5.34961,4.76954 -21.33399,4.76954 h -9.66797 z"
       id="path16" />
  </g>
</svg>
