<?xml version="1.0" encoding="UTF-8" standalone="no"?>
<svg
   viewBox="0 0 256 256"
   width="256"
   height="256"
   version="1.1"
   id="svg4"
   xmlns="http://www.w3.org/2000/svg"
   xmlns:svg="http://www.w3.org/2000/svg">
  <defs
     id="defs8" />
  <g
     aria-label="{?}"
     id="text2"
     style="font-weight:bold;font-size:122px;font-family:'DejaVu Sans Mono';dominant-baseline:central;text-anchor:middle;fill:#17181d">
    <path
       d="m 80.552246,168.20996 v 11.37793 h -8.935547 q -14.833008,0 -19.896484,-4.4082 -5.003906,-4.40821 -5.003906,-17.57324 v -12.80762 q 0,-8.99512 -3.216797,-12.39063 -3.157227,-3.45508 -11.497071,-3.45508 H 28.309082 V 117.5752 h 3.693359 q 8.339844,0 11.497071,-3.39551 3.216797,-3.39551 3.216797,-12.4502 V 88.921875 q 0,-13.165039 5.003906,-17.513672 Q 56.783691,67 71.616699,67 h 8.935547 v 11.318359 h -7.327148 q -6.195313,0 -8.280274,2.501953 -2.084961,2.501954 -2.084961,11.020508 v 12.4502 q 0,9.8291 -2.918945,13.82031 -2.918945,3.99121 -10.424805,5.12305 7.50586,1.25097 10.424805,5.30175 2.918945,4.05078 2.918945,13.82032 v 12.21191 q 0,8.57812 2.084961,11.08008 2.084961,2.56152 8.280274,2.56152 z"
       id="path10" />
    <path
       d="m 117.48584,142.83301 h 15.90527 v 16.8584 h -15.90527 z m 15.90527,-7.0293 h -15.90527 v -9.17383 q 0,-5.89746 1.84668,-10.06738 1.84668,-4.16992 6.6123,-8.81641 l 5.36133,-5.30175 q 3.75293,-3.633793 5.06348,-6.016606 1.37012,-2.382812 1.37012,-4.944336 0,-3.991211 -2.74024,-6.016601 -2.74023,-2.025391 -8.2207,-2.025391 -5.00391,0 -10.48438,2.144531 -5.42089,2.084961 -11.13964,6.254883 V 75.875977 q 5.83789,-3.335938 11.79492,-5.003907 6.0166,-1.727539 12.0332,-1.727539 12.0332,0 18.88379,5.59961 6.85059,5.599609 6.85059,15.428711 0,4.527343 -2.0254,8.458984 -2.02539,3.872074 -7.625,9.352544 l -5.24218,5.12304 q -4.05078,3.93164 -5.18262,6.4336 -1.13184,2.50195 -1.13184,6.13574 0,0.53613 -0.0596,1.25097 0,0.71485 -0.0596,1.54883 z"
       id="path12" />
    <path
       d="m 175.44775,168.20996 h 7.20801 q 6.19531,0 8.33985,-2.56152 2.14453,-2.56153 2.14453,-11.08008 v -12.21191 q 0,-9.76954 2.91894,-13.82032 2.91895,-4.05078 10.36524,-5.30175 -7.50586,-1.13184 -10.42481,-5.12305 -2.85937,-3.99121 -2.85937,-13.82031 v -12.4502 q 0,-8.399414 -2.14453,-10.960937 -2.08497,-2.561524 -8.33985,-2.561524 h -7.20801 V 67 h 8.93555 q 14.77344,0 19.71777,4.408203 5.00391,4.348633 5.00391,17.513672 v 12.807615 q 0,8.99512 3.2168,12.4502 3.27636,3.39551 11.67578,3.39551 h 3.69336 v 11.37792 h -3.69336 q -8.39942,0 -11.67578,3.45508 -3.2168,3.45508 -3.2168,12.39063 v 12.80762 q 0,13.16503 -5.00391,17.57324 -4.94433,4.4082 -19.71777,4.4082 h -8.93555 z"
       id="path14" />
  </g>
</svg>
