<?xml version="1.0" encoding="UTF-8" standalone="no"?>
<svg
   viewBox="0 0 256 256"
   width="256"
   height="256"
   version="1.1"
   id="svg6"
   xmlns="http://www.w3.org/2000/svg"
   xmlns:svg="http://www.w3.org/2000/svg">
  <defs
     id="defs10" />
  <rect
     x="16"
     y="16"
     width="224"
     height="224"
     rx="58"
     fill="#ef5f4c"
     id="rect2" />
  <g
     aria-label="{?}"
     id="text4"
     style="font-weight:bold;font-size:112px;font-family:'DejaVu Sans Mono';dominant-baseline:central;text-anchor:middle;fill:#fdfbf7">
    <path
       d="m 84.441406,164.91406 v 10.44531 h -8.203125 q -13.617187,0 -18.265625,-4.04687 -4.59375,-4.04688 -4.59375,-16.13281 v -11.75782 q 0,-8.25781 -2.953125,-11.375 Q 47.527344,128.875 39.871094,128.875 h -3.390625 v -10.44531 h 3.390625 q 7.65625,0 10.554687,-3.11719 2.953125,-3.11719 2.953125,-11.42969 V 92.125 q 0,-12.085938 4.59375,-16.078125 Q 62.621094,72 76.238281,72 h 8.203125 v 10.390625 h -6.726562 q -5.6875,0 -7.601563,2.296875 -1.914062,2.296875 -1.914062,10.117187 v 11.429693 q 0,9.02343 -2.679688,12.6875 -2.679687,3.66406 -9.570312,4.70312 6.890625,1.14844 9.570312,4.86719 2.679688,3.71875 2.679688,12.6875 v 11.21093 q 0,7.875 1.914062,10.17188 1.914063,2.35156 7.601563,2.35156 z"
       id="path12" />
    <path
       d="m 118.34766,141.61719 h 14.60156 v 15.47656 h -14.60156 z m 14.60156,-6.45313 h -14.60156 v -8.42187 q 0,-5.41406 1.69531,-9.24219 1.69531,-3.82812 6.07031,-8.09375 l 4.92188,-4.86719 q 3.44531,-3.33593 4.64843,-5.523435 1.25782,-2.1875 1.25782,-4.539063 0,-3.664062 -2.51563,-5.523437 -2.51562,-1.859375 -7.54687,-1.859375 -4.59375,0 -9.625,1.96875 -4.97657,1.914062 -10.22657,5.742187 v -14.65625 q 5.35938,-3.0625 10.82813,-4.59375 5.52344,-1.585937 11.04687,-1.585937 11.04688,0 17.33594,5.140625 6.28906,5.140625 6.28906,14.164062 0,4.15625 -1.85937,7.765623 -1.85938,3.55469 -7,8.58594 l -4.8125,4.70313 q -3.71875,3.60937 -4.75781,5.90625 -1.03907,2.29687 -1.03907,5.63281 0,0.49219 -0.0547,1.14844 0,0.65625 -0.0547,1.42187 z"
       id="path14" />
    <path
       d="m 171.55859,164.91406 h 6.61719 q 5.6875,0 7.65625,-2.35156 1.96875,-2.35156 1.96875,-10.17188 v -11.21093 q 0,-8.96875 2.67969,-12.6875 2.67969,-3.71875 9.51562,-4.86719 -6.89062,-1.03906 -9.57031,-4.70312 -2.625,-3.66407 -2.625,-12.6875 V 94.804687 q 0,-7.710937 -1.96875,-10.0625 -1.91406,-2.351562 -7.65625,-2.351562 h -6.61719 V 72 h 8.20313 q 13.5625,0 18.10156,4.046875 4.59375,3.992187 4.59375,16.078125 v 11.75781 q 0,8.25782 2.95313,11.42969 3.00781,3.11719 10.71875,3.11719 h 3.39062 V 128.875 h -3.39062 q -7.71094,0 -10.71875,3.17187 -2.95313,3.17188 -2.95313,11.375 v 11.75782 q 0,12.08593 -4.59375,16.13281 -4.53906,4.04687 -18.10156,4.04687 h -8.20313 z"
       id="path16" />
  </g>
</svg>
