<?xml version="1.0" encoding="UTF-8" standalone="no"?>
<svg
   viewBox="0 0 640 170"
   width="640"
   height="170"
   version="1.1"
   id="svg14"
   xmlns="http://www.w3.org/2000/svg"
   xmlns:svg="http://www.w3.org/2000/svg">
  <defs
     id="defs18" />
  <rect
     x="14"
     y="29"
     width="112"
     height="112"
     rx="29"
     fill="#ef5f4c"
     id="rect2" />
  <g
     aria-label="{?}"
     id="text4"
     style="font-weight:bold;font-size:56px;font-family:'DejaVu Sans Mono';dominant-baseline:central;text-anchor:middle;fill:#fdfbf7">
    <path
       d="m 48.220703,103.45703 v 5.22266 h -4.101562 q -6.808594,0 -9.132813,-2.02344 -2.296875,-2.02344 -2.296875,-8.066406 v -5.878907 q 0,-4.128906 -1.476562,-5.6875 Q 29.763672,85.4375 25.935547,85.4375 h -1.695313 v -5.222656 h 1.695313 q 3.828125,0 5.277344,-1.558594 1.476562,-1.558594 1.476562,-5.714844 V 67.0625 q 0,-6.042969 2.296875,-8.039063 Q 37.310547,57 44.119141,57 h 4.101562 v 5.195312 h -3.363281 q -2.84375,0 -3.800781,1.148438 -0.957032,1.148437 -0.957032,5.058594 v 5.714843 q 0,4.511719 -1.339843,6.34375 -1.339844,1.832032 -4.785157,2.351563 3.445313,0.574219 4.785157,2.433594 1.339843,1.859375 1.339843,6.34375 v 5.605468 q 0,3.937498 0.957032,5.085938 0.957031,1.17578 3.800781,1.17578 z"
       id="path20" />
    <path
       d="m 65.173828,91.808594 h 7.300781 v 7.738281 h -7.300781 z m 7.300781,-3.226563 h -7.300781 v -4.210937 q 0,-2.707032 0.847656,-4.621094 0.847657,-1.914063 3.035157,-4.046875 l 2.460937,-2.433594 q 1.722656,-1.667969 2.324219,-2.761719 0.628906,-1.09375 0.628906,-2.269531 0,-1.832031 -1.257812,-2.761719 -1.257813,-0.929687 -3.773438,-0.929687 -2.296875,0 -4.8125,0.984375 -2.488281,0.957031 -5.113281,2.871094 v -7.328125 q 2.679687,-1.53125 5.414062,-2.296875 2.761719,-0.792969 5.523438,-0.792969 5.523437,0 8.667969,2.570312 3.144531,2.570313 3.144531,7.082032 0,2.078125 -0.929688,3.882812 -0.929687,1.777344 -3.5,4.292969 l -2.40625,2.351562 q -1.859375,1.804688 -2.378906,2.953125 -0.519531,1.148438 -0.519531,2.816407 0,0.246093 -0.02734,0.574218 0,0.328125 -0.02734,0.710938 z"
       id="path22" />
    <path
       d="m 91.779297,103.45703 h 3.308594 q 2.84375,0 3.828125,-1.17578 0.984375,-1.17578 0.984375,-5.085938 v -5.605468 q 0,-4.484375 1.339839,-6.34375 1.33985,-1.859375 4.75782,-2.433594 -3.44532,-0.519531 -4.78516,-2.351563 -1.312499,-1.832031 -1.312499,-6.34375 v -5.714843 q 0,-3.855469 -0.984375,-5.03125 -0.957032,-1.175782 -3.828125,-1.175782 H 91.779297 V 57 h 4.101562 q 6.781251,0 9.050781,2.023437 2.29688,1.996094 2.29688,8.039063 v 5.878906 q 0,4.128906 1.47656,5.714844 1.5039,1.558594 5.35937,1.558594 h 1.69532 V 85.4375 h -1.69532 q -3.85547,0 -5.35937,1.585937 -1.47656,1.585938 -1.47656,5.6875 v 5.878907 q 0,6.042966 -2.29688,8.066406 -2.26953,2.02344 -9.050781,2.02344 h -4.101562 z"
       id="path24" />
  </g>
  <g
     aria-label="libConfuse"
     id="text10"
     style="font-weight:bold;font-size:58px;font-family:'DejaVu Sans Mono';dominant-baseline:central">
    <path
       d="M 162.95996,86.84082 V 62.37207 h -8.41113 V 56 h 16.70898 v 30.84082 q 0,3.738282 1.16114,5.295899 1.16113,1.557617 3.93652,1.557617 h 6.62695 v 6.372074 h -8.94922 q -5.91894,0 -8.49609,-3.058598 -2.57715,-3.058593 -2.57715,-10.166992 z"
       style="fill:#8c8a83"
       id="path27" />
    <path
       d="m 193.17773,68.347656 h 16.42579 v 25.34668 h 10.30859 v 6.372074 h -28.94336 v -6.372074 h 10.33691 V 74.719727 h -8.12793 z m 8.12793,-15.43457 h 8.29786 v 9.685547 h -8.29786 z"
       style="fill:#8c8a83"
       id="path29" />
    <path
       d="m 245.91016,84.291992 q 0,-4.58789 -1.5293,-7.193359 -1.5293,-2.605469 -4.21973,-2.605469 -2.69043,0 -4.24804,2.605469 -1.55762,2.605469 -1.55762,7.193359 0,4.587891 1.55762,7.19336 1.55761,2.605468 4.24804,2.605468 2.69043,0 4.21973,-2.605468 1.5293,-2.605469 1.5293,-7.19336 z M 234.35547,72.850586 q 1.5293,-2.633789 3.54004,-3.936524 2.03906,-1.331054 4.58789,-1.331054 5.63574,0 8.66601,4.304687 3.0586,4.304688 3.0586,12.347657 0,7.929687 -3.00196,12.291015 -3.00195,4.361333 -8.43945,4.361333 -2.86035,0 -4.98437,-1.3877 -2.12403,-1.387695 -3.42676,-4.134766 v 4.701176 h -8.26953 V 56 h 8.26953 z"
       style="fill:#8c8a83"
       id="path31" />
    <path
       d="m 287.37109,98.848633 q -1.98242,1.019531 -4.16308,1.529297 -2.18067,0.50977 -4.58789,0.50977 -8.55274,0 -13.05567,-5.635747 -4.50293,-5.635742 -4.50293,-16.28418 0,-10.676757 4.50293,-16.3125 4.50293,-5.635742 13.05567,-5.635742 2.40722,0 4.61621,0.509766 2.20898,0.509765 4.13476,1.529297 v 9.289062 q -2.15234,-1.982422 -4.1914,-2.888672 -2.01074,-0.93457 -4.16309,-0.93457 -4.58789,0 -6.93848,3.65332 -2.32226,3.625 -2.32226,10.790039 0,7.136719 2.32226,10.790039 2.35059,3.625 6.93848,3.625 2.15235,0 4.16309,-0.90625 2.03906,-0.93457 4.1914,-2.916992 z"
       style="fill:#ef5f4c"
       id="path33" />
    <path
       d="m 309.12109,74.323242 q -2.97363,0 -4.67285,2.633789 -1.69922,2.605469 -1.69922,7.278321 0,4.672851 1.69922,7.30664 1.69922,2.605469 4.67285,2.605469 3.00196,0 4.70118,-2.605469 1.69921,-2.633789 1.69921,-7.30664 0,-4.672852 -1.69921,-7.278321 -1.69922,-2.633789 -4.70118,-2.633789 z m -14.66992,9.91211 q 0,-7.674805 3.96485,-12.149415 3.99316,-4.502929 10.70507,-4.502929 6.74024,0 10.70508,4.502929 3.99317,4.47461 3.99317,12.149415 0,7.674804 -3.99317,12.177734 -3.96484,4.474614 -10.70508,4.474614 -6.71191,0 -10.70507,-4.474614 -3.96485,-4.50293 -3.96485,-12.177734 z"
       style="fill:#ef5f4c"
       id="path35" />
    <path
       d="m 356.92578,79.477539 v 20.588871 h -8.24121 V 80.751953 q 0,-3.455078 -0.99121,-4.927734 -0.96289,-1.500977 -3.17188,-1.500977 -2.2373,0 -3.54003,2.010742 -1.27442,2.010743 -1.27442,5.579102 v 18.153324 h -8.24121 V 68.347656 h 8.24121 v 4.757813 q 0.87793,-2.633789 3.00195,-4.078125 2.12403,-1.444336 5.12598,-1.444336 4.50293,0 6.79688,3.001953 2.29394,2.973633 2.29394,8.892578 z"
       style="fill:#ef5f4c"
       id="path37" />
    <path
       d="m 382.44238,65.572266 v 2.77539 h 9.74219 v 6.372071 h -9.74219 v 25.346683 h -8.29785 V 74.719727 h -7.70312 v -6.372071 h 7.70312 v -2.208984 q 0,-5.720703 2.37891,-7.929688 Q 378.90234,56 385.35937,56 h 6.8252 v 6.37207 h -6.48535 q -1.86914,0 -2.54883,0.679688 -0.65137,0.679687 -0.70801,2.520508 z"
       style="fill:#ef5f4c"
       id="path39" />
    <path
       d="M 400.96387,88.993164 V 68.347656 h 8.29785 V 87.71875 q 0,3.426758 0.96289,4.899414 0.96289,1.472656 3.20019,1.472656 2.23731,0 3.4834,-1.982422 1.27442,-1.982421 1.27442,-5.550781 V 68.347656 h 8.29785 v 31.718754 h -8.29785 v -4.701176 q -0.87793,2.633789 -3.00196,4.078125 -2.0957,1.444341 -5.06933,1.444341 -4.53125,0 -6.85352,-3.001958 -2.29394,-3.001953 -2.29394,-8.892578 z"
       style="fill:#ef5f4c"
       id="path41" />
    <path
       d="m 459.41699,69.338867 v 7.25 q -2.29394,-1.472656 -4.78613,-2.208984 -2.46387,-0.764649 -4.95606,-0.764649 -2.77539,0 -4.1914,0.821289 -1.41602,0.792969 -1.41602,2.378907 0,2.265625 6.06055,3.68164 l 0.31152,0.08496 2.37891,0.566406 q 4.53125,1.076172 6.62695,3.483399 2.12403,2.378906 2.12403,6.457031 0,4.899414 -3.22852,7.363281 -3.2002,2.435552 -9.65723,2.435552 -2.86035,0 -5.8623,-0.50977 -3.00195,-0.481446 -6.08887,-1.472657 v -7.25 q 2.74707,1.557618 5.5791,2.378907 2.86035,0.821289 5.52246,0.821289 2.917,0 4.41797,-0.84961 1.50098,-0.849609 1.50098,-2.463867 0,-1.585937 -1.07617,-2.435547 -1.04785,-0.849609 -5.04102,-1.8125 L 445.3418,86.78418 q -4.75782,-1.076172 -6.93848,-3.370118 -2.18066,-2.293945 -2.18066,-6.145507 0,-4.587891 3.31347,-7.136719 3.31348,-2.548828 9.31739,-2.548828 2.69043,0 5.35253,0.453125 2.69043,0.424804 5.21094,1.302734 z"
       style="fill:#ef5f4c"
       id="path43" />
    <path
       d="m 497.47949,98.508789 q -2.88867,1.189453 -5.89062,1.784181 -3.00196,0.59473 -6.34375,0.59473 -7.95801,0 -12.17774,-4.248052 -4.1914,-4.276367 -4.1914,-12.291015 0,-7.759766 4.0498,-12.262696 4.04981,-4.502929 11.04492,-4.502929 7.05176,0 10.93164,4.191406 3.90821,4.163086 3.90821,11.75293 v 3.370117 h -21.49512 q 0.0283,3.738281 2.20898,5.579101 2.18067,1.840821 6.51368,1.840821 2.86035,0 5.63574,-0.821289 2.77539,-0.821289 5.80566,-2.605469 z m -7.02344,-17.841797 q -0.0566,-3.285156 -1.69921,-4.956055 -1.61426,-1.699218 -4.78614,-1.699218 -2.86035,0 -4.55957,1.755859 -1.69922,1.727539 -2.01074,4.927734 z"
       style="fill:#ef5f4c"
       id="path45" />
  </g>
  <g
     aria-label="// if you can't convince, confuse."
     id="text12"
     style="font-style:italic;font-size:21px;font-family:'DejaVu Sans Mono';dominant-baseline:central;fill:#1f9e93">
    <path
       d="m 154.16406,128.40332 8.73633,-17.25732 h 1.9585 l -8.75684,17.25732 z"
       id="path48" />
    <path
       d="m 166.80713,128.40332 8.73633,-17.25732 h 1.95849 l -8.75683,17.25732 z"
       id="path50" />
    <path
       d="m 195.6001,114.9707 h 4.82959 l -1.94824,10.01807 h 3.74267 l -0.29736,1.46631 h -9.37207 l 0.29736,-1.46631 h 3.74268 l 1.65088,-8.55176 h -2.93262 z m 3.8042,-4.4707 h 1.88672 l -0.46143,2.38916 h -1.88672 z"
       id="path52" />
    <path
       d="m 217.33838,110.5 -0.31787,1.56885 h -2.13281 q -0.97413,0 -1.46631,0.43066 -0.49219,0.42041 -0.69727,1.45606 l -0.21533,1.01513 h 3.94775 l -0.2666,1.46631 h -3.94775 l -1.9585,10.01807 h -1.88672 l 1.94824,-10.01807 h -3.06591 l 0.29736,-1.46631 h 3.04541 l 0.16406,-0.7998 q 0.38965,-1.97901 1.37403,-2.81983 0.99463,-0.85107 2.91211,-0.85107 z"
       id="path54" />
    <path
       d="m 237.91797,122.76367 q -0.63574,1.09717 -1.6919,2.95313 -1.58935,2.81982 -2.14306,3.56836 -0.59473,0.77929 -1.36377,1.15869 -0.75879,0.37939 -1.74317,0.37939 h -1.51757 l 0.29736,-1.5791 h 1.10742 q 0.83057,0 1.42529,-0.48193 0.60498,-0.47168 1.22022,-1.63037 l 0.44092,-0.86133 -2.2251,-11.29981 h 1.87646 l 1.76368,8.83887 4.95263,-8.83887 h 2.10205 z"
       id="path56" />
    <path
       d="m 249.63818,116.29346 q -1.68164,0 -2.80957,1.75342 -1.11767,1.75341 -1.11767,4.46044 0,1.32276 0.57422,1.98926 0.57421,0.65625 1.72265,0.65625 1.68164,0 2.79932,-1.75342 1.12793,-1.75341 1.12793,-4.46045 0,-1.32275 -0.57422,-1.979 -0.57422,-0.6665 -1.72266,-0.6665 z m 0.17432,-1.59961 q 2.00977,0 3.05566,1.09717 1.05616,1.09716 1.05616,3.20947 0,1.41504 -0.42041,2.81982 -0.42041,1.39453 -1.1792,2.51221 -0.81006,1.20996 -1.96875,1.81494 -1.15869,0.60498 -2.66602,0.60498 -1.91748,0 -2.95312,-1.11767 -1.03565,-1.12793 -1.03565,-3.20948 0,-1.38427 0.42041,-2.76855 0.42041,-1.38428 1.18946,-2.54297 0.81005,-1.18945 1.94824,-1.80469 1.14843,-0.61523 2.55322,-0.61523 z"
       id="path58" />
    <path
       d="m 256.61084,122.08691 1.36377,-7.11621 h 1.89697 l -1.38428,7.11621 q -0.0718,0.3794 -0.11279,0.72803 -0.041,0.34863 -0.041,0.59473 0,0.81006 0.47168,1.25097 0.48193,0.43067 1.35351,0.43067 1.30225,0 2.20459,-0.94336 0.90234,-0.95361 1.24072,-2.68652 l 1.26123,-6.49073 h 1.89698 l -2.23535,11.48438 h -1.88672 l 0.33838,-1.72266 q -0.74854,1.00488 -1.66114,1.50733 -0.91259,0.49218 -1.98926,0.49218 -1.34326,0 -2.12255,-0.74853 -0.7793,-0.75879 -0.7793,-2.05078 0,-0.39991 0.041,-0.87158 0.0513,-0.48194 0.14355,-0.97413 z"
       id="path60" />
    <path
       d="m 290.06934,125.93213 q -0.74854,0.3999 -1.60987,0.60498 -0.85107,0.21533 -1.77392,0.21533 -2.29688,0 -3.47608,-1.14844 -1.1792,-1.15869 -1.1792,-3.41455 0,-1.52783 0.54346,-2.99414 0.55371,-1.47656 1.48682,-2.48144 0.95361,-1.01514 2.09179,-1.51758 1.14844,-0.50244 2.51221,-0.50244 0.9126,0 1.76367,0.22558 0.85108,0.21534 1.66114,0.65625 l -0.3794,1.86621 q -0.67676,-0.59472 -1.39453,-0.87158 -0.71777,-0.27685 -1.58936,-0.27685 -1.12793,0 -1.99951,0.46142 -0.87158,0.45117 -1.48681,1.36377 -0.57422,0.84082 -0.90235,1.92774 -0.31787,1.07666 -0.31787,2.14306 0,1.47657 0.69727,2.2251 0.70752,0.73828 2.10205,0.73828 0.98437,0 1.88672,-0.31787 0.91259,-0.31787 1.76367,-0.96387 z"
       id="path62" />
    <path
       d="m 300.16943,120.68213 q -1.22021,0 -1.81494,0.082 -0.59472,0.0718 -1.03564,0.25635 -0.69727,0.27685 -1.11768,0.9126 -0.42041,0.62548 -0.42041,1.37402 0,0.85107 0.52295,1.36377 0.5332,0.50244 1.43555,0.50244 1.51758,0 2.61474,-1.08691 1.10743,-1.08692 1.49707,-2.98389 l 0.082,-0.42041 z m 3.8042,-0.7793 -1.28174,6.55225 h -1.88671 l 0.32812,-1.70215 q -0.73828,0.96387 -1.74316,1.48682 -1.00489,0.51269 -2.13282,0.51269 -1.56884,0 -2.5122,-0.85107 -0.93311,-0.86133 -0.93311,-2.27637 0,-2.00977 1.5791,-3.20947 1.58936,-1.20996 4.29639,-1.20996 h 2.52246 l 0.12305,-0.62549 q 0.0205,-0.0923 0.0308,-0.19483 0.0102,-0.10254 0.0102,-0.28711 0,-0.87158 -0.64599,-1.333 -0.646,-0.47168 -1.84571,-0.47168 -0.88183,0 -1.90722,0.2666 -1.01514,0.25635 -2.15332,0.7793 l 0.35888,-1.84571 q 1.10743,-0.3999 2.10205,-0.59472 0.99463,-0.20508 1.90723,-0.20508 1.90723,0 2.96338,0.84082 1.06641,0.84082 1.06641,2.32763 0,0.32813 -0.0615,0.86133 -0.0615,0.53321 -0.18457,1.1792 z"
       id="path64" />
    <path
       d="m 316.73975,119.33887 -1.38428,7.11621 h -1.88672 l 1.38428,-7.12647 q 0.0102,-0.041 0.0308,-0.14355 0.15381,-0.72803 0.15381,-1.12793 0,-0.83057 -0.48194,-1.27149 -0.47168,-0.45117 -1.36377,-0.45117 -1.30224,0 -2.21484,0.95362 -0.9126,0.95361 -1.25098,2.67627 l -1.26123,6.49072 h -1.88672 l 2.24561,-11.48438 h 1.88672 l -0.32813,1.72266 q 0.76905,-0.99463 1.66114,-1.49707 0.90234,-0.50244 1.90722,-0.50244 1.4253,0 2.21485,0.74853 0.78955,0.73828 0.78955,2.07129 0,0.32813 -0.0615,0.81006 -0.0513,0.48193 -0.1538,1.01514 z"
       id="path66" />
    <path
       d="m 325.55811,111.146 v 5.69091 h -1.78418 V 111.146 Z"
       id="path68" />
    <path
       d="m 338.87793,111.70996 -0.62549,3.26074 h 4.27588 l -0.28711,1.46631 h -4.28613 l -1.22022,6.23438 q -0.0615,0.30761 -0.0923,0.57422 -0.0308,0.25634 -0.0308,0.48193 0,0.67676 0.3999,0.95361 0.3999,0.2666 1.4458,0.2666 h 2.12256 l -0.29737,1.50733 h -2.28662 q -1.7124,0 -2.52246,-0.56397 -0.7998,-0.57422 -0.7998,-1.78418 0,-0.25634 0.041,-0.60498 0.041,-0.34863 0.1333,-0.83056 l 1.22022,-6.23438 h -3.06592 l 0.28711,-1.46631 h 3.06592 l 0.63574,-3.26074 z"
       id="path70" />
    <path
       d="m 365.92773,125.93213 q -0.74853,0.3999 -1.60986,0.60498 -0.85107,0.21533 -1.77392,0.21533 -2.29688,0 -3.47608,-1.14844 -1.1792,-1.15869 -1.1792,-3.41455 0,-1.52783 0.54346,-2.99414 0.55371,-1.47656 1.48682,-2.48144 0.95361,-1.01514 2.09179,-1.51758 1.14844,-0.50244 2.51221,-0.50244 0.9126,0 1.76367,0.22558 0.85108,0.21534 1.66113,0.65625 l -0.37939,1.86621 q -0.67676,-0.59472 -1.39453,-0.87158 -0.71778,-0.27685 -1.58936,-0.27685 -1.12793,0 -1.99951,0.46142 -0.87158,0.45117 -1.48682,1.36377 -0.57421,0.84082 -0.90234,1.92774 -0.31787,1.07666 -0.31787,2.14306 0,1.47657 0.69727,2.2251 0.70751,0.73828 2.10205,0.73828 0.98437,0 1.88671,-0.31787 0.9126,-0.31787 1.76368,-0.96387 z"
       id="path72" />
    <path
       d="m 376.06885,116.29346 q -1.68164,0 -2.80957,1.75342 -1.11768,1.75341 -1.11768,4.46044 0,1.32276 0.57422,1.98926 0.57422,0.65625 1.72266,0.65625 1.68164,0 2.79931,-1.75342 1.12793,-1.75341 1.12793,-4.46045 0,-1.32275 -0.57422,-1.979 -0.57421,-0.6665 -1.72265,-0.6665 z m 0.17431,-1.59961 q 2.00977,0 3.05567,1.09717 1.05615,1.09716 1.05615,3.20947 0,1.41504 -0.42041,2.81982 -0.42041,1.39453 -1.1792,2.51221 -0.81006,1.20996 -1.96875,1.81494 -1.15869,0.60498 -2.66601,0.60498 -1.91749,0 -2.95313,-1.11767 -1.03564,-1.12793 -1.03564,-3.20948 0,-1.38427 0.42041,-2.76855 0.42041,-1.38428 1.18945,-2.54297 0.81006,-1.18945 1.94824,-1.80469 1.14844,-0.61523 2.55322,-0.61523 z"
       id="path74" />
    <path
       d="m 392.59814,119.33887 -1.38427,7.11621 h -1.88672 l 1.38428,-7.12647 q 0.0102,-0.041 0.0308,-0.14355 0.15381,-0.72803 0.15381,-1.12793 0,-0.83057 -0.48194,-1.27149 -0.47168,-0.45117 -1.36377,-0.45117 -1.30224,0 -2.21484,0.95362 -0.9126,0.95361 -1.25098,2.67627 l -1.26123,6.49072 h -1.88672 l 2.24561,-11.48438 h 1.88672 l -0.32813,1.72266 q 0.76905,-0.99463 1.66114,-1.49707 0.90234,-0.50244 1.90722,-0.50244 1.42529,0 2.21485,0.74853 0.78955,0.73828 0.78955,2.07129 0,0.32813 -0.0615,0.81006 -0.0513,0.48193 -0.15381,1.01514 z"
       id="path76" />
    <path
       d="m 396.08447,114.9707 h 1.8252 l 1.5791,9.80274 5.14746,-9.80274 h 2.03027 l -6.29589,11.48438 h -2.44043 z"
       id="path78" />
    <path
       d="m 410.53223,114.9707 h 4.82959 l -1.94825,10.01807 h 3.74268 l -0.29736,1.46631 h -9.37207 l 0.29736,-1.46631 h 3.74268 l 1.65087,-8.55176 h -2.93261 z m 3.8042,-4.4707 h 1.88671 l -0.46142,2.38916 H 413.875 Z"
       id="path80" />
    <path
       d="m 430.52734,119.33887 -1.38427,7.11621 h -1.88672 l 1.38427,-7.12647 q 0.0103,-0.041 0.0308,-0.14355 0.15381,-0.72803 0.15381,-1.12793 0,-0.83057 -0.48194,-1.27149 -0.47168,-0.45117 -1.36377,-0.45117 -1.30224,0 -2.21484,0.95362 -0.9126,0.95361 -1.25098,2.67627 l -1.26123,6.49072 h -1.88672 l 2.24561,-11.48438 h 1.88672 l -0.32813,1.72266 q 0.76904,-0.99463 1.66113,-1.49707 0.90235,-0.50244 1.90723,-0.50244 1.42529,0 2.21484,0.74853 0.78956,0.73828 0.78956,2.07129 0,0.32813 -0.0615,0.81006 -0.0513,0.48193 -0.15381,1.01514 z"
       id="path82" />
    <path
       d="m 441.78613,125.93213 q -0.74853,0.3999 -1.60986,0.60498 -0.85107,0.21533 -1.77393,0.21533 -2.29687,0 -3.47607,-1.14844 -1.1792,-1.15869 -1.1792,-3.41455 0,-1.52783 0.54346,-2.99414 0.55371,-1.47656 1.48681,-2.48144 0.95362,-1.01514 2.0918,-1.51758 1.14844,-0.50244 2.51221,-0.50244 0.9126,0 1.76367,0.22558 0.85107,0.21534 1.66113,0.65625 l -0.37939,1.86621 q -0.67676,-0.59472 -1.39453,-0.87158 -0.71778,-0.27685 -1.58936,-0.27685 -1.12793,0 -1.99951,0.46142 -0.87158,0.45117 -1.48682,1.36377 -0.57422,0.84082 -0.90234,1.92774 -0.31787,1.07666 -0.31787,2.14306 0,1.47657 0.69726,2.2251 0.70752,0.73828 2.10205,0.73828 0.98438,0 1.88672,-0.31787 0.9126,-0.31787 1.76368,-0.96387 z"
       id="path84" />
    <path
       d="m 454.40869,119.69775 q 0.0615,-0.27685 0.082,-0.45117 0.0205,-0.18457 0.0205,-0.34863 0,-1.23047 -0.6665,-1.91748 -0.66651,-0.68701 -1.85596,-0.68701 -1.26123,0 -2.30713,0.92285 -1.03564,0.92285 -1.48682,2.48144 z m 0.23584,6.17286 q -1.07666,0.44091 -2.10205,0.65625 -1.02539,0.22558 -2.08154,0.22558 -2.28662,0 -3.47608,-1.13818 -1.18945,-1.14844 -1.18945,-3.34278 0,-1.5996 0.61523,-3.13769 0.61524,-1.53809 1.70215,-2.65576 0.85108,-0.88184 1.87647,-1.34326 1.03564,-0.46143 2.15332,-0.46143 1.90722,0 3.04541,1.1792 1.14844,1.16894 1.14844,3.12744 0,0.34863 -0.0513,0.87158 -0.0513,0.5127 -0.17432,1.3125 h -8.2749 q -0.0615,0.32813 -0.0923,0.59473 -0.0308,0.2666 -0.0308,0.47168 0,1.42529 0.78955,2.17383 0.78955,0.74853 2.29688,0.74853 0.90234,0 1.96875,-0.28711 1.07666,-0.29736 2.2456,-0.87158 z"
       id="path86" />
    <path
       d="m 461.69922,123.34814 h 2.58398 l -0.42041,2.12256 -2.77881,3.92725 h -1.56884 l 1.76367,-3.92725 z"
       id="path88" />
    <path
       d="m 492.3584,125.93213 q -0.74854,0.3999 -1.60986,0.60498 -0.85108,0.21533 -1.77393,0.21533 -2.29688,0 -3.47607,-1.14844 -1.1792,-1.15869 -1.1792,-3.41455 0,-1.52783 0.54345,-2.99414 0.55371,-1.47656 1.48682,-2.48144 0.95361,-1.01514 2.0918,-1.51758 1.14843,-0.50244 2.5122,-0.50244 0.9126,0 1.76368,0.22558 0.85107,0.21534 1.66113,0.65625 l -0.3794,1.86621 q -0.67675,-0.59472 -1.39453,-0.87158 -0.71777,-0.27685 -1.58935,-0.27685 -1.12793,0 -1.99952,0.46142 -0.87158,0.45117 -1.48681,1.36377 -0.57422,0.84082 -0.90235,1.92774 -0.31787,1.07666 -0.31787,2.14306 0,1.47657 0.69727,2.2251 0.70752,0.73828 2.10205,0.73828 0.98438,0 1.88672,-0.31787 0.9126,-0.31787 1.76367,-0.96387 z"
       id="path90" />
    <path
       d="m 502.49951,116.29346 q -1.68164,0 -2.80957,1.75342 -1.11767,1.75341 -1.11767,4.46044 0,1.32276 0.57421,1.98926 0.57422,0.65625 1.72266,0.65625 1.68164,0 2.79932,-1.75342 1.12793,-1.75341 1.12793,-4.46045 0,-1.32275 -0.57422,-1.979 -0.57422,-0.6665 -1.72266,-0.6665 z m 0.17432,-1.59961 q 2.00976,0 3.05566,1.09717 1.05615,1.09716 1.05615,3.20947 0,1.41504 -0.42041,2.81982 -0.42041,1.39453 -1.17919,2.51221 -0.81006,1.20996 -1.96875,1.81494 -1.1587,0.60498 -2.66602,0.60498 -1.91748,0 -2.95313,-1.11767 -1.03564,-1.12793 -1.03564,-3.20948 0,-1.38427 0.42041,-2.76855 0.42041,-1.38428 1.18945,-2.54297 0.81006,-1.18945 1.94825,-1.80469 1.14843,-0.61523 2.55322,-0.61523 z"
       id="path92" />
    <path
       d="m 519.02881,119.33887 -1.38428,7.11621 h -1.88672 l 1.38428,-7.12647 q 0.0102,-0.041 0.0308,-0.14355 0.15381,-0.72803 0.15381,-1.12793 0,-0.83057 -0.48193,-1.27149 -0.47168,-0.45117 -1.36377,-0.45117 -1.30225,0 -2.21485,0.95362 -0.91259,0.95361 -1.25097,2.67627 l -1.26123,6.49072 h -1.88672 l 2.2456,-11.48438 h 1.88672 l -0.32812,1.72266 q 0.76904,-0.99463 1.66113,-1.49707 0.90234,-0.50244 1.90723,-0.50244 1.42529,0 2.21484,0.74853 0.78955,0.73828 0.78955,2.07129 0,0.32813 -0.0615,0.81006 -0.0513,0.48193 -0.15381,1.01514 z"
       id="path94" />
    <path
       d="m 533.41504,110.5 -0.31787,1.56885 h -2.13281 q -0.97413,0 -1.46631,0.43066 -0.49219,0.42041 -0.69727,1.45606 l -0.21533,1.01513 h 3.94775 l -0.2666,1.46631 h -3.94775 l -1.9585,10.01807 h -1.88672 l 1.94824,-10.01807 h -3.06591 l 0.29736,-1.46631 h 3.04541 l 0.16406,-0.7998 q 0.38965,-1.97901 1.37403,-2.81983 0.99463,-0.85107 2.91211,-0.85107 z"
       id="path96" />
    <path
       d="m 534.7583,122.08691 1.36377,-7.11621 h 1.89697 l -1.38427,7.11621 q -0.0718,0.3794 -0.1128,0.72803 -0.041,0.34863 -0.041,0.59473 0,0.81006 0.47168,1.25097 0.48193,0.43067 1.35351,0.43067 1.30225,0 2.20459,-0.94336 0.90235,-0.95361 1.24072,-2.68652 l 1.26124,-6.49073 h 1.89697 l -2.23535,11.48438 h -1.88672 l 0.33838,-1.72266 q -0.74854,1.00488 -1.66114,1.50733 -0.91259,0.49218 -1.98925,0.49218 -1.34327,0 -2.12256,-0.74853 -0.7793,-0.75879 -0.7793,-2.05078 0,-0.39991 0.041,-0.87158 0.0513,-0.48194 0.14355,-0.97413 z"
       id="path98" />
    <path
       d="m 556.97852,115.37061 -0.35889,1.8457 q -0.72803,-0.46143 -1.53809,-0.69727 -0.7998,-0.24609 -1.58935,-0.24609 -1.40479,0 -2.18408,0.52295 -0.76905,0.52295 -0.76905,1.46631 0,1.00488 2.26612,1.5791 0.1538,0.041 0.22558,0.0615 l 0.73828,0.18457 q 1.19971,0.31787 1.79444,0.95362 0.59472,0.62548 0.59472,1.56884 0,1.85596 -1.47656,3.0044 -1.47656,1.13818 -3.91699,1.13818 -0.83057,0 -1.73291,-0.18457 -0.90235,-0.17432 -1.91748,-0.5332 l 0.37939,-1.94824 q 0.96387,0.54345 1.86621,0.82031 0.9126,0.2666 1.76368,0.2666 1.36376,0 2.22509,-0.60498 0.86133,-0.61523 0.86133,-1.55859 0,-1.01514 -2.00976,-1.54834 -0.18458,-0.041 -0.28711,-0.0718 l -0.68702,-0.18457 q -1.32275,-0.33838 -1.94824,-0.99463 -0.61523,-0.65625 -0.61523,-1.7124 0,-1.74317 1.35351,-2.76856 1.35352,-1.03564 3.65039,-1.03564 0.90235,0 1.73291,0.17431 0.83057,0.16407 1.57911,0.50245 z"
       id="path100" />
    <path
       d="m 568.19629,119.69775 q 0.0615,-0.27685 0.082,-0.45117 0.0205,-0.18457 0.0205,-0.34863 0,-1.23047 -0.66651,-1.91748 -0.6665,-0.68701 -1.85595,-0.68701 -1.26123,0 -2.30713,0.92285 -1.03565,0.92285 -1.48682,2.48144 z m 0.23584,6.17286 q -1.07666,0.44091 -2.10205,0.65625 -1.02539,0.22558 -2.08154,0.22558 -2.28663,0 -3.47608,-1.13818 -1.18945,-1.14844 -1.18945,-3.34278 0,-1.5996 0.61523,-3.13769 0.61524,-1.53809 1.70215,-2.65576 0.85107,-0.88184 1.87647,-1.34326 1.03564,-0.46143 2.15332,-0.46143 1.90722,0 3.04541,1.1792 1.14843,1.16894 1.14843,3.12744 0,0.34863 -0.0513,0.87158 -0.0513,0.5127 -0.17431,1.3125 h -8.2749 q -0.0615,0.32813 -0.0923,0.59473 -0.0308,0.2666 -0.0308,0.47168 0,1.42529 0.78955,2.17383 0.78955,0.74853 2.29687,0.74853 0.90235,0 1.96875,-0.28711 1.07666,-0.29736 2.24561,-0.87158 z"
       id="path102" />
    <path
       d="m 575.46631,123.34814 h 2.58398 l -0.61523,3.10694 h -2.58399 z"
       id="path104" />
  </g>
</svg>
